<svg ed:hSpacing="30" width="866" xmlns:ed="https://www.edrawsoft.com/xml/2017/SVGExtensions/" xmlns:ev="http://www.w3.org/2001/xml-events" ed:name="Page-1" viewBox="0 0 866 1146" xmlns="http://www.w3.org/2000/svg" id="page100" ed:vSpacing="30" height="1146" xmlns:xlink="http://www.w3.org/1999/xlink"><style type="text/css"><![CDATA[
g[ed\:togtopicid],g[ed\:hyperlink],g[ed\:comment],g[ed\:note] {cursor:pointer;}
g[id] {-moz-user-select: none;-ms-user-select: none;user-select: none;}
svg text::selection,svg tspan::selection{background-color: #4285f4;color: #ffffff;fill: #ffffff;}
.st2 {fill:#303030;font-family:微软雅黑;font-size:12pt}
.st3 {fill:#454545;font-family:微软雅黑;font-size:10pt}
.st1 {fill:#ffffff;font-family:微软雅黑;font-size:14pt}
]]></style><defs><linearGradient x1="0%" x2="0%" id="lg1" y1="0%" y2="100%"><stop offset="0" stop-color="#ffffff"/><stop offset="0.25" stop-color="#f0f5f0"/><stop offset="0.75" stop-color="#e1ebe1"/><stop offset="1" stop-color="#c8d7c8"/></linearGradient></defs><rect width="866" fill="#ffffff" height="1146" x="0" y="0"/><path stroke-linecap="round" fill="none" ed:tosuperid="102" stroke="#696969" stroke-linejoin="round" ed:parentid="101" id="103" d="M-45.5,-238.3C5.7,-127.7,-54.5,266.8,80.8,266.8" transform="matrix(1,0,0,1,202,840)"/><path stroke-linecap="round" fill="none" ed:tosuperid="122" stroke="#696969" stroke-linejoin="round" ed:parentid="101" id="123" d="M-43.5,187.1C3,91,-42.7,-215.6,80.8,-215.6" transform="matrix(1,0,0,1,202,357)"/><path stroke-linecap="round" fill="none" ed:tosuperid="124" stroke="#696969" stroke-linejoin="round" ed:parentid="101" id="125" d="M-32.1,57.6C2.1,8.7,10.7,-86.1,80.8,-86.1" transform="matrix(1,0,0,1,202,487)"/><path stroke-linecap="round" fill="none" ed:tosuperid="126" stroke="#696969" stroke-linejoin="round" ed:parentid="101" id="127" d="M-29.2,-45.9C3.7,-2.7,17.1,74.4,80.8,74.4" transform="matrix(1,0,0,1,202,647)"/><path stroke-linecap="round" fill="none" ed:tosuperid="128" stroke="#696969" stroke-linejoin="round" ed:parentid="101" id="129" d="M-43.4,-183.1C2.8,-88.1,-41.5,211.6,80.8,211.6" transform="matrix(1,0,0,1,202,785)"/><path stroke-linecap="round" fill="none" ed:tosuperid="132" stroke="#696969" stroke-linejoin="round" ed:parentid="122" id="133" d="M-13.5,-6.1C-1.3,-6.1,2.1,6.1,13.5,6.1" transform="matrix(1,0,0,1,400,148)"/><path stroke-linecap="round" fill="none" ed:tosuperid="136" stroke="#696969" stroke-linejoin="round" ed:parentid="124" id="137" d="M-13.5,1.6C-2.3,1.6,4.5,-1.6,13.5,-1.6" transform="matrix(1,0,0,1,400,399)"/><path stroke-linecap="round" fill="none" ed:tosuperid="138" stroke="#696969" stroke-linejoin="round" ed:parentid="124" id="139" d="M-13.5,-52.6C5.4,-52.6,-13.5,52.6,13.5,52.6" transform="matrix(1,0,0,1,400,453)"/><path stroke-linecap="round" fill="none" ed:tosuperid="140" stroke="#696969" stroke-linejoin="round" ed:parentid="126" id="141" d="M-13.5,55.9C5.4,55.9,-13.5,-55.9,13.5,-55.9" transform="matrix(1,0,0,1,400,666)"/><path stroke-linecap="round" fill="none" ed:tosuperid="142" stroke="#696969" stroke-linejoin="round" ed:parentid="126" id="143" d="M-13.5,-6.1C-1.3,-6.1,2.1,6.1,13.5,6.1" transform="matrix(1,0,0,1,400,728)"/><path stroke-linecap="round" fill="none" ed:tosuperid="144" stroke="#696969" stroke-linejoin="round" ed:parentid="126" id="145" d="M-13.5,-68.1C5.4,-68.1,-13.5,68.1,13.5,68.1" transform="matrix(1,0,0,1,400,790)"/><path stroke-linecap="round" fill="none" ed:tosuperid="146" stroke="#696969" stroke-linejoin="round" ed:parentid="128" id="147" d="M-13.5,-6.1C-1.3,-6.1,2.1,6.1,13.5,6.1" transform="matrix(1,0,0,1,400,1002)"/><path stroke-linecap="round" fill="none" ed:tosuperid="150" stroke="#696969" stroke-linejoin="round" ed:parentid="102" id="151" d="M-13.5,-6.1C-1.3,-6.1,2.1,6.1,13.5,6.1" transform="matrix(1,0,0,1,400,1113)"/><path stroke-linecap="round" fill="none" ed:tosuperid="152" stroke="#696969" stroke-linejoin="round" ed:parentid="132" id="153" d="M-13.5,54.3C5.4,54.3,-13.5,-54.3,13.5,-54.3" transform="matrix(1,0,0,1,497,100)"/><path stroke-linecap="round" fill="none" ed:tosuperid="154" stroke="#696969" stroke-linejoin="round" ed:parentid="158" id="155" d="M-13.5,23.3C2.4,23.3,-6.4,-23.3,13.5,-23.3" transform="matrix(1,0,0,1,594,131)"/><path stroke-linecap="round" fill="none" ed:tosuperid="156" stroke="#696969" stroke-linejoin="round" ed:parentid="158" id="157" d="M-13.5,38.8C4.6,38.8,-11.7,-38.8,13.5,-38.8" transform="matrix(1,0,0,1,594,115)"/><path stroke-linecap="round" fill="none" ed:tosuperid="158" stroke="#696969" stroke-linejoin="round" ed:parentid="132" id="159" d="M-13.5,0C-2.7,0,5.4,0,13.5,0" transform="matrix(1,0,0,1,497,154)"/><path stroke-linecap="round" fill="none" ed:tosuperid="160" stroke="#696969" stroke-linejoin="round" ed:parentid="158" id="161" d="M-13.5,7.8C-0.9,7.8,1.2,-7.8,13.5,-7.8" transform="matrix(1,0,0,1,594,146)"/><path stroke-linecap="round" fill="none" ed:tosuperid="162" stroke="#696969" stroke-linejoin="round" ed:parentid="158" id="163" d="M-13.5,-15.5C0.8,-15.5,-2.8,15.5,13.5,15.5" transform="matrix(1,0,0,1,594,170)"/><path stroke-linecap="round" fill="none" ed:tosuperid="164" stroke="#696969" stroke-linejoin="round" ed:parentid="158" id="165" d="M-13.5,-38.8C4.6,-38.8,-11.7,38.8,13.5,38.8" transform="matrix(1,0,0,1,594,193)"/><path stroke-linecap="round" fill="none" ed:tosuperid="166" stroke="#696969" stroke-linejoin="round" ed:parentid="136" id="167" d="M-13.5,-38.8C4.6,-38.8,-11.7,38.8,13.5,38.8" transform="matrix(1,0,0,1,497,436)"/><path stroke-linecap="round" fill="none" ed:tosuperid="168" stroke="#696969" stroke-linejoin="round" ed:parentid="136" id="169" d="M-13.5,7.8C-0.9,7.8,1.2,-7.8,13.5,-7.8" transform="matrix(1,0,0,1,497,390)"/><path stroke-linecap="round" fill="none" ed:tosuperid="170" stroke="#696969" stroke-linejoin="round" ed:parentid="132" id="171" d="M-13.5,-54.3C5.4,-54.3,-13.5,54.3,13.5,54.3" transform="matrix(1,0,0,1,497,208)"/><path stroke-linecap="round" fill="none" ed:tosuperid="172" stroke="#696969" stroke-linejoin="round" ed:parentid="168" id="173" d="M-13.5,31C3.7,31,-9.4,-31,13.5,-31" transform="matrix(1,0,0,1,594,351)"/><path stroke-linecap="round" fill="none" ed:tosuperid="174" stroke="#696969" stroke-linejoin="round" ed:parentid="168" id="175" d="M-13.5,15.5C0.8,15.5,-2.8,-15.5,13.5,-15.5" transform="matrix(1,0,0,1,594,367)"/><path stroke-linecap="round" fill="none" ed:tosuperid="176" stroke="#696969" stroke-linejoin="round" ed:parentid="168" id="177" d="M-13.5,-7.8C-0.9,-7.8,1.2,7.8,13.5,7.8" transform="matrix(1,0,0,1,594,390)"/><path stroke-linecap="round" fill="none" ed:tosuperid="178" stroke="#696969" stroke-linejoin="round" ed:parentid="168" id="179" d="M-13.5,-31C3.7,-31,-9.4,31,13.5,31" transform="matrix(1,0,0,1,594,413)"/><path stroke-linecap="round" fill="none" ed:tosuperid="180" stroke="#696969" stroke-linejoin="round" ed:parentid="162" id="181" d="M-13.5,7.8C-0.9,7.8,1.2,-7.8,13.5,-7.8" transform="matrix(1,0,0,1,717,177)"/><path stroke-linecap="round" fill="none" ed:tosuperid="182" stroke="#696969" stroke-linejoin="round" ed:parentid="162" id="183" d="M-13.5,-7.8C-0.9,-7.8,1.2,7.8,13.5,7.8" transform="matrix(1,0,0,1,717,193)"/><path stroke-linecap="round" fill="none" ed:tosuperid="184" stroke="#696969" stroke-linejoin="round" ed:parentid="176" id="185" d="M-13.5,7.8C-0.9,7.8,1.2,-7.8,13.5,-7.8" transform="matrix(1,0,0,1,717,390)"/><path stroke-linecap="round" fill="none" ed:tosuperid="186" stroke="#696969" stroke-linejoin="round" ed:parentid="176" id="187" d="M-13.5,-7.8C-0.9,-7.8,1.2,7.8,13.5,7.8" transform="matrix(1,0,0,1,717,405)"/><path stroke-linecap="round" fill="none" ed:tosuperid="188" stroke="#696969" stroke-linejoin="round" ed:parentid="138" id="189" d="M-13.5,0C-2.7,0,5.4,0,13.5,0" transform="matrix(1,0,0,1,497,506)"/><path stroke-linecap="round" fill="none" ed:tosuperid="190" stroke="#696969" stroke-linejoin="round" ed:parentid="140" id="191" d="M-13.5,23.3C2.4,23.3,-6.4,-23.3,13.5,-23.3" transform="matrix(1,0,0,1,497,587)"/><path stroke-linecap="round" fill="none" ed:tosuperid="192" stroke="#696969" stroke-linejoin="round" ed:parentid="140" id="193" d="M-13.5,-7.8C-0.9,-7.8,1.2,7.8,13.5,7.8" transform="matrix(1,0,0,1,497,618)"/><path stroke-linecap="round" fill="none" ed:tosuperid="194" stroke="#696969" stroke-linejoin="round" ed:parentid="192" id="195" d="M-13.5,15.5C0.8,15.5,-2.8,-15.5,13.5,-15.5" transform="matrix(1,0,0,1,594,610)"/><path stroke-linecap="round" fill="none" ed:tosuperid="196" stroke="#696969" stroke-linejoin="round" ed:parentid="192" id="197" d="M-13.5,0C-2.7,0,5.4,0,13.5,0" transform="matrix(1,0,0,1,594,626)"/><path stroke-linecap="round" fill="none" ed:tosuperid="198" stroke="#696969" stroke-linejoin="round" ed:parentid="192" id="199" d="M-13.5,-15.5C0.8,-15.5,-2.8,15.5,13.5,15.5" transform="matrix(1,0,0,1,594,641)"/><path stroke-linecap="round" fill="none" ed:tosuperid="200" stroke="#696969" stroke-linejoin="round" ed:parentid="142" id="201" d="M-13.5,15.5C0.8,15.5,-2.8,-15.5,13.5,-15.5" transform="matrix(1,0,0,1,497,719)"/><path stroke-linecap="round" fill="none" ed:tosuperid="202" stroke="#696969" stroke-linejoin="round" ed:parentid="142" id="203" d="M-13.5,-15.5C0.8,-15.5,-2.8,15.5,13.5,15.5" transform="matrix(1,0,0,1,497,750)"/><path stroke-linecap="round" fill="none" ed:tosuperid="204" stroke="#696969" stroke-linejoin="round" ed:parentid="200" id="205" d="M-13.5,7.8C-0.9,7.8,1.2,-7.8,13.5,-7.8" transform="matrix(1,0,0,1,672,695)"/><path stroke-linecap="round" fill="none" ed:tosuperid="206" stroke="#696969" stroke-linejoin="round" ed:parentid="200" id="207" d="M-13.5,-7.8C-0.9,-7.8,1.2,7.8,13.5,7.8" transform="matrix(1,0,0,1,672,711)"/><path stroke-linecap="round" fill="none" ed:tosuperid="208" stroke="#696969" stroke-linejoin="round" ed:parentid="202" id="209" d="M-13.5,7.8C-0.9,7.8,1.2,-7.8,13.5,-7.8" transform="matrix(1,0,0,1,672,757)"/><path stroke-linecap="round" fill="none" ed:tosuperid="210" stroke="#696969" stroke-linejoin="round" ed:parentid="202" id="211" d="M-13.5,-7.8C-0.9,-7.8,1.2,7.8,13.5,7.8" transform="matrix(1,0,0,1,672,773)"/><path stroke-linecap="round" fill="none" ed:tosuperid="214" stroke="#696969" stroke-linejoin="round" ed:parentid="144" id="215" d="M-13.5,23.3C2.4,23.3,-6.4,-23.3,13.5,-23.3" transform="matrix(1,0,0,1,497,835)"/><path stroke-linecap="round" fill="none" ed:tosuperid="216" stroke="#696969" stroke-linejoin="round" ed:parentid="144" id="217" d="M-13.5,-7.8C-0.9,-7.8,1.2,7.8,13.5,7.8" transform="matrix(1,0,0,1,497,866)"/><path stroke-linecap="round" fill="none" ed:tosuperid="220" stroke="#696969" stroke-linejoin="round" ed:parentid="216" id="221" d="M-13.5,15.5C0.8,15.5,-2.8,-15.5,13.5,-15.5" transform="matrix(1,0,0,1,620,858)"/><path stroke-linecap="round" fill="none" ed:tosuperid="222" stroke="#696969" stroke-linejoin="round" ed:parentid="216" id="223" d="M-13.5,0C-2.7,0,5.4,0,13.5,0" transform="matrix(1,0,0,1,620,874)"/><path stroke-linecap="round" fill="none" ed:tosuperid="224" stroke="#696969" stroke-linejoin="round" ed:parentid="216" id="225" d="M-13.5,-15.5C0.8,-15.5,-2.8,15.5,13.5,15.5" transform="matrix(1,0,0,1,620,889)"/><path stroke-linecap="round" fill="none" ed:tosuperid="226" stroke="#696969" stroke-linejoin="round" ed:parentid="222" id="227" d="M-13.5,0C-2.7,0,5.4,0,13.5,0" transform="matrix(1,0,0,1,775,874)"/><path stroke-linecap="round" fill="none" ed:tosuperid="228" stroke="#696969" stroke-linejoin="round" ed:parentid="146" id="229" d="M-7,23.3C2.7,23.3,-6.7,-23.3,7,-23.3" transform="matrix(1,0,0,1,490,985)"/><path stroke-linecap="round" fill="none" ed:tosuperid="230" stroke="#696969" stroke-linejoin="round" ed:parentid="146" id="231" d="M-7,7.8C0.4,7.8,-1.3,-7.8,7,-7.8" transform="matrix(1,0,0,1,490,1001)"/><path stroke-linecap="round" fill="none" ed:tosuperid="232" stroke="#696969" stroke-linejoin="round" ed:parentid="146" id="233" d="M-7,-15.5C1.8,-15.5,-4.7,15.5,7,15.5" transform="matrix(1,0,0,1,490,1024)"/><path stroke-linecap="round" fill="none" ed:tosuperid="234" stroke="#696969" stroke-linejoin="round" ed:parentid="232" id="235" d="M-13.5,7.8C-0.9,7.8,1.2,-7.8,13.5,-7.8" transform="matrix(1,0,0,1,581,1032)"/><path stroke-linecap="round" fill="none" ed:tosuperid="236" stroke="#696969" stroke-linejoin="round" ed:parentid="232" id="237" d="M-13.5,-7.8C-0.9,-7.8,1.2,7.8,13.5,7.8" transform="matrix(1,0,0,1,581,1047)"/><path stroke-linecap="round" fill="none" ed:tosuperid="240" stroke="#696969" stroke-linejoin="round" ed:parentid="150" id="241" d="M-13.5,0C-2.7,0,5.4,0,13.5,0" transform="matrix(1,0,0,1,497,1119)"/><g ed:width="197" ed:topictype="mainidea" ed:height="57" id="101" transform="matrix(1,0,0,1,23,545)" ed:layout="map"><path fill="#435fbc" stroke="#435fbc" stroke-linejoin="round" d="M4,0L193,0C195.7,0,197,1.3,197,4L197,53C197,55.7,195.7,57,193,57L4,57C1.3,57,0,55.7,0,53L0,4C0,1.3,1.3,0,4,0z" stroke-width="3"/><text class="st1"><tspan x="21" style="white-space:pre" y="34.5">电商后台管理系统</tspan></text></g><g ed:width="103" ed:height="37" ed:parentid="101" id="102" transform="matrix(1,0,0,1,283,1088)" ed:layout="rightmap"><path fill="#ebecf3" stroke="#ebecf3" stroke-linejoin="round" d="M4,0L99,0C101.7,0,103,1.3,103,4L103,33C103,35.7,101.7,37,99,37L4,37C1.3,37,0,35.7,0,33L0,4C0,1.3,1.3,0,4,0z"/><text class="st2"><tspan x="18" style="white-space:pre" y="23.4">数据统计</tspan></text></g><g ed:width="103" ed:height="37" ed:parentid="101" id="122" transform="matrix(1,0,0,1,283,123)" ed:layout="rightmap"><path fill="#ebecf3" stroke="#ebecf3" stroke-linejoin="round" d="M4,0L99,0C101.7,0,103,1.3,103,4L103,33C103,35.7,101.7,37,99,37L4,37C1.3,37,0,35.7,0,33L0,4C0,1.3,1.3,0,4,0z"/><text class="st2"><tspan x="18" style="white-space:pre" y="23.4">用户管理</tspan></text></g><g ed:width="103" ed:height="37" ed:parentid="101" id="124" transform="matrix(1,0,0,1,283,382)" ed:layout="rightmap"><path fill="#ebecf3" stroke="#ebecf3" stroke-linejoin="round" d="M4,0L99,0C101.7,0,103,1.3,103,4L103,33C103,35.7,101.7,37,99,37L4,37C1.3,37,0,35.7,0,33L0,4C0,1.3,1.3,0,4,0z"/><text class="st2"><tspan x="18" style="white-space:pre" y="23.4">权限管理</tspan></text></g><g ed:width="103" ed:height="37" ed:parentid="101" id="126" transform="matrix(1,0,0,1,283,703)" ed:layout="rightmap"><path fill="#ebecf3" stroke="#ebecf3" stroke-linejoin="round" d="M4,0L99,0C101.7,0,103,1.3,103,4L103,33C103,35.7,101.7,37,99,37L4,37C1.3,37,0,35.7,0,33L0,4C0,1.3,1.3,0,4,0z"/><text class="st2"><tspan x="18" style="white-space:pre" y="23.4">商品管理</tspan></text></g><g ed:width="103" ed:height="37" ed:parentid="101" id="128" transform="matrix(1,0,0,1,283,978)" ed:layout="rightmap"><path fill="#ebecf3" stroke="#ebecf3" stroke-linejoin="round" d="M4,0L99,0C101.7,0,103,1.3,103,4L103,33C103,35.7,101.7,37,99,37L4,37C1.3,37,0,35.7,0,33L0,4C0,1.3,1.3,0,4,0z"/><text class="st2"><tspan x="18" style="white-space:pre" y="23.4">订单管理</tspan></text></g><g ed:width="70" ed:height="24.5" ed:parentid="122" id="132" transform="matrix(1,0,0,1,413,130)" ed:layout="rightmap"><path fill="none" stroke="#696969" stroke-linejoin="round" d="M0,24.5L70,24.5"/><text class="st3"><tspan x="8" style="white-space:pre" y="16.1">用户管理</tspan></text></g><g ed:width="70" ed:height="24.5" ed:parentid="124" id="136" transform="matrix(1,0,0,1,413,373)" ed:layout="rightmap"><path fill="none" stroke="#696969" stroke-linejoin="round" d="M0,24.5L70,24.5"/><text class="st3"><tspan x="8" style="white-space:pre" y="16.1">角色列表</tspan></text></g><g ed:width="70" ed:height="24.5" ed:parentid="124" id="138" transform="matrix(1,0,0,1,413,482)" ed:layout="rightmap"><path fill="none" stroke="#696969" stroke-linejoin="round" d="M0,24.5L70,24.5"/><text class="st3"><tspan x="8" style="white-space:pre" y="16.1">权限列表</tspan></text></g><g ed:width="70" ed:height="24.5" ed:parentid="126" id="140" transform="matrix(1,0,0,1,413,586)" ed:layout="rightmap"><path fill="none" stroke="#696969" stroke-linejoin="round" d="M0,24.5L70,24.5"/><text class="st3"><tspan x="8" style="white-space:pre" y="16.1">商品列表</tspan></text></g><g ed:width="70" ed:height="24.5" ed:parentid="126" id="142" transform="matrix(1,0,0,1,413,710)" ed:layout="rightmap"><path fill="none" stroke="#696969" stroke-linejoin="round" d="M0,24.5L70,24.5"/><text class="st3"><tspan x="8" style="white-space:pre" y="16.1">分类参数</tspan></text></g><g ed:width="70" ed:height="24.5" ed:parentid="126" id="144" transform="matrix(1,0,0,1,413,834)" ed:layout="rightmap"><path fill="none" stroke="#696969" stroke-linejoin="round" d="M0,24.5L70,24.5"/><text class="st3"><tspan x="8" style="white-space:pre" y="16.1">商品分类</tspan></text></g><g ed:width="57" ed:height="24.5" ed:parentid="128" id="146" transform="matrix(1,0,0,1,413,984)" ed:layout="rightmap"><path fill="none" stroke="#696969" stroke-linejoin="round" d="M0,24.5L70,24.5"/><text class="st3"><tspan x="8" style="white-space:pre" y="16.1">订单管理</tspan></text></g><g ed:width="70" ed:height="24.5" ed:parentid="102" id="150" transform="matrix(1,0,0,1,413,1094)" ed:layout="rightmap"><path fill="none" stroke="#696969" stroke-linejoin="round" d="M0,24.5L70,24.5"/><text class="st3"><tspan x="8" style="white-space:pre" y="16.1">数据统计</tspan></text></g><g ed:width="70" ed:height="24.5" ed:parentid="132" id="152" transform="matrix(1,0,0,1,510,21)" ed:layout="rightmap"><path fill="none" stroke="#696969" stroke-linejoin="round" d="M0,24.5L70,24.5"/><text class="st3"><tspan x="8" style="white-space:pre" y="16.1">查询用户</tspan></text></g><g ed:width="70" ed:height="24.5" ed:parentid="158" id="154" transform="matrix(1,0,0,1,607,83)" ed:layout="rightmap"><path fill="none" stroke="#696969" stroke-linejoin="round" d="M0,24.5L70,24.5"/><text class="st3"><tspan x="8" style="white-space:pre" y="16.1">添加用户</tspan></text></g><g ed:width="96" ed:height="24.5" ed:parentid="158" id="156" transform="matrix(1,0,0,1,607,52)" ed:layout="rightmap"><path fill="none" stroke="#696969" stroke-linejoin="round" d="M0,24.5L96,24.5"/><text class="st3"><tspan x="8" style="white-space:pre" y="16.1">设置用户状态</tspan></text></g><g ed:width="70" ed:height="24.5" ed:parentid="132" id="158" transform="matrix(1,0,0,1,510,130)" ed:layout="rightmap"><path fill="none" stroke="#696969" stroke-linejoin="round" d="M0,24.5L70,24.5"/><text class="st3"><tspan x="8" style="white-space:pre" y="16.1">用户操作</tspan></text></g><g ed:width="70" ed:height="24.5" ed:parentid="158" id="160" transform="matrix(1,0,0,1,607,114)" ed:layout="rightmap"><path fill="none" stroke="#696969" stroke-linejoin="round" d="M0,24.5L70,24.5"/><text class="st3"><tspan x="8" style="white-space:pre" y="16.1">删除用户</tspan></text></g><g ed:width="96" ed:height="24.5" ed:parentid="158" id="162" transform="matrix(1,0,0,1,607,161)" ed:layout="rightmap"><path fill="none" stroke="#696969" stroke-linejoin="round" d="M0,24.5L96,24.5"/><text class="st3"><tspan x="8" style="white-space:pre" y="16.1">修改用户信息</tspan></text></g><g ed:width="96" ed:height="24.5" ed:parentid="158" id="164" transform="matrix(1,0,0,1,607,207)" ed:layout="rightmap"><path fill="none" stroke="#696969" stroke-linejoin="round" d="M0,24.5L96,24.5"/><text class="st3"><tspan x="8" style="white-space:pre" y="16.1">分配用户角色</tspan></text></g><g ed:width="96" ed:height="24.5" ed:parentid="136" id="166" transform="matrix(1,0,0,1,510,451)" ed:layout="rightmap"><path fill="none" stroke="#696969" stroke-linejoin="round" d="M0,24.5L96,24.5"/><text class="st3"><tspan x="8" style="white-space:pre" y="16.1">展示角色列表</tspan></text></g><g ed:width="70" ed:height="24.5" ed:parentid="136" id="168" transform="matrix(1,0,0,1,510,358)" ed:layout="rightmap"><path fill="none" stroke="#696969" stroke-linejoin="round" d="M0,24.5L70,24.5"/><text class="st3"><tspan x="8" style="white-space:pre" y="16.1">角色操作</tspan></text></g><g ed:width="96" ed:height="24.5" ed:parentid="132" id="170" transform="matrix(1,0,0,1,510,238)" ed:layout="rightmap"><path fill="none" stroke="#696969" stroke-linejoin="round" d="M0,24.5L96,24.5"/><text class="st3"><tspan x="8" style="white-space:pre" y="16.1">展示用户列表</tspan></text></g><g ed:width="70" ed:height="24.5" ed:parentid="168" id="172" transform="matrix(1,0,0,1,607,296)" ed:layout="rightmap"><path fill="none" stroke="#696969" stroke-linejoin="round" d="M0,24.5L70,24.5"/><text class="st3"><tspan x="8" style="white-space:pre" y="16.1">添加角色</tspan></text></g><g ed:width="70" ed:height="24.5" ed:parentid="168" id="174" transform="matrix(1,0,0,1,607,327)" ed:layout="rightmap"><path fill="none" stroke="#696969" stroke-linejoin="round" d="M0,24.5L70,24.5"/><text class="st3"><tspan x="8" style="white-space:pre" y="16.1">删除角色</tspan></text></g><g ed:width="96" ed:height="24.5" ed:parentid="168" id="176" transform="matrix(1,0,0,1,607,373)" ed:layout="rightmap"><path fill="none" stroke="#696969" stroke-linejoin="round" d="M0,24.5L96,24.5"/><text class="st3"><tspan x="8" style="white-space:pre" y="16.1">修改角色信息</tspan></text></g><g ed:width="96" ed:height="24.5" ed:parentid="168" id="178" transform="matrix(1,0,0,1,607,420)" ed:layout="rightmap"><path fill="none" stroke="#696969" stroke-linejoin="round" d="M0,24.5L96,24.5"/><text class="st3"><tspan x="8" style="white-space:pre" y="16.1">分配角色权限</tspan></text></g><g ed:width="70" ed:height="24.5" ed:parentid="162" id="180" transform="matrix(1,0,0,1,730,145)" ed:layout="rightmap"><path fill="none" stroke="#696969" stroke-linejoin="round" d="M0,24.5L70,24.5"/><text class="st3"><tspan x="8" style="white-space:pre" y="16.1">预留邮箱</tspan></text></g><g ed:width="83" ed:height="24.5" ed:parentid="162" id="182" transform="matrix(1,0,0,1,730,176)" ed:layout="rightmap"><path fill="none" stroke="#696969" stroke-linejoin="round" d="M0,24.5L83,24.5"/><text class="st3"><tspan x="8" style="white-space:pre" y="16.1">预留手机号</tspan></text></g><g ed:width="57" ed:height="24.5" ed:parentid="176" id="184" transform="matrix(1,0,0,1,730,358)" ed:layout="rightmap"><path fill="none" stroke="#696969" stroke-linejoin="round" d="M0,24.5L57,24.5"/><text class="st3"><tspan x="8" style="white-space:pre" y="16.1">角色名</tspan></text></g><g ed:width="70" ed:height="24.5" ed:parentid="176" id="186" transform="matrix(1,0,0,1,730,389)" ed:layout="rightmap"><path fill="none" stroke="#696969" stroke-linejoin="round" d="M0,24.5L70,24.5"/><text class="st3"><tspan x="8" style="white-space:pre" y="16.1">角色描述</tspan></text></g><g ed:width="96" ed:height="24.5" ed:parentid="138" id="188" transform="matrix(1,0,0,1,510,482)" ed:layout="rightmap"><path fill="none" stroke="#696969" stroke-linejoin="round" d="M0,24.5L96,24.5"/><text class="st3"><tspan x="8" style="white-space:pre" y="16.1">展示权限列表</tspan></text></g><g ed:width="70" ed:height="24.5" ed:parentid="140" id="190" transform="matrix(1,0,0,1,510,539)" ed:layout="rightmap"><path fill="none" stroke="#696969" stroke-linejoin="round" d="M0,24.5L70,24.5"/><text class="st3"><tspan x="8" style="white-space:pre" y="16.1">查询商品</tspan></text></g><g ed:width="70" ed:height="24.5" ed:parentid="140" id="192" transform="matrix(1,0,0,1,510,601)" ed:layout="rightmap"><path fill="none" stroke="#696969" stroke-linejoin="round" d="M0,24.5L70,24.5"/><text class="st3"><tspan x="8" style="white-space:pre" y="16.1">商品操作</tspan></text></g><g ed:width="70" ed:height="24.5" ed:parentid="192" id="194" transform="matrix(1,0,0,1,607,570)" ed:layout="rightmap"><path fill="none" stroke="#696969" stroke-linejoin="round" d="M0,24.5L70,24.5"/><text class="st3"><tspan x="8" style="white-space:pre" y="16.1">添加商品</tspan></text></g><g ed:width="96" ed:height="24.5" ed:parentid="192" id="196" transform="matrix(1,0,0,1,607,601)" ed:layout="rightmap"><path fill="none" stroke="#696969" stroke-linejoin="round" d="M0,24.5L96,24.5"/><text class="st3"><tspan x="8" style="white-space:pre" y="16.1">修改商品信息</tspan></text></g><g ed:width="70" ed:height="24.5" ed:parentid="192" id="198" transform="matrix(1,0,0,1,607,632)" ed:layout="rightmap"><path fill="none" stroke="#696969" stroke-linejoin="round" d="M0,24.5L70,24.5"/><text class="st3"><tspan x="8" style="white-space:pre" y="16.1">删除商品</tspan></text></g><g ed:width="148" ed:height="24.5" ed:parentid="142" id="200" transform="matrix(1,0,0,1,510,679)" ed:layout="rightmap"><path fill="none" stroke="#696969" stroke-linejoin="round" d="M0,24.5L148,24.5"/><text class="st3"><tspan x="8" style="white-space:pre" y="16.1">设置一类商品动态参数</tspan></text></g><g ed:width="148" ed:height="24.5" ed:parentid="142" id="202" transform="matrix(1,0,0,1,510,741)" ed:layout="rightmap"><path fill="none" stroke="#696969" stroke-linejoin="round" d="M0,24.5L148,24.5"/><text class="st3"><tspan x="8" style="white-space:pre" y="16.1">设置一类商品静态属性</tspan></text></g><g ed:width="122" ed:height="24.5" ed:parentid="200" id="204" transform="matrix(1,0,0,1,685,663)" ed:layout="rightmap"><path fill="none" stroke="#696969" stroke-linejoin="round" d="M0,24.5L122,24.5"/><text class="st3"><tspan x="8" style="white-space:pre" y="16.1">编辑商品动态参数</tspan></text></g><g ed:width="122" ed:height="24.5" ed:parentid="200" id="206" transform="matrix(1,0,0,1,685,694)" ed:layout="rightmap"><path fill="none" stroke="#696969" stroke-linejoin="round" d="M0,24.5L122,24.5"/><text class="st3"><tspan x="8" style="white-space:pre" y="16.1">删除商品动态参数</tspan></text></g><g ed:width="122" ed:height="24.5" ed:parentid="202" id="208" transform="matrix(1,0,0,1,685,725)" ed:layout="rightmap"><path fill="none" stroke="#696969" stroke-linejoin="round" d="M0,24.5L122,24.5"/><text class="st3"><tspan x="8" style="white-space:pre" y="16.1">编辑商品动态参数</tspan></text></g><g ed:width="122" ed:height="24.5" ed:parentid="202" id="210" transform="matrix(1,0,0,1,685,756)" ed:layout="rightmap"><path fill="none" stroke="#696969" stroke-linejoin="round" d="M0,24.5L122,24.5"/><text class="st3"><tspan x="8" style="white-space:pre" y="16.1">删除商品动态参数</tspan></text></g><g ed:width="122" ed:height="24.5" ed:parentid="144" id="214" transform="matrix(1,0,0,1,510,787)" ed:layout="rightmap"><path fill="none" stroke="#696969" stroke-linejoin="round" d="M0,24.5L122,24.5"/><text class="st3"><tspan x="8" style="white-space:pre" y="16.1">展示商品类型列表</tspan></text></g><g ed:width="96" ed:height="24.5" ed:parentid="144" id="216" transform="matrix(1,0,0,1,510,849)" ed:layout="rightmap"><path fill="none" stroke="#696969" stroke-linejoin="round" d="M0,24.5L96,24.5"/><text class="st3"><tspan x="8" style="white-space:pre" y="16.1">商品类型操作</tspan></text></g><g ed:width="128" ed:height="24.5" ed:parentid="216" id="220" transform="matrix(1,0,0,1,633,818)" ed:layout="rightmap"><path fill="none" stroke="#696969" stroke-linejoin="round" d="M0,24.5L128,24.5"/><text class="st3"><tspan x="8" style="white-space:pre" y="16.1">新增商品父类/子类</tspan></text></g><g ed:width="128" ed:height="24.5" ed:parentid="216" id="222" transform="matrix(1,0,0,1,633,849)" ed:layout="rightmap"><path fill="none" stroke="#696969" stroke-linejoin="round" d="M0,24.5L128,24.5"/><text class="st3"><tspan x="8" style="white-space:pre" y="16.1">编辑商品父类/子类</tspan></text></g><g ed:width="128" ed:height="24.5" ed:parentid="216" id="224" transform="matrix(1,0,0,1,633,880)" ed:layout="rightmap"><path fill="none" stroke="#696969" stroke-linejoin="round" d="M0,24.5L128,24.5"/><text class="st3"><tspan x="8" style="white-space:pre" y="16.1">删除商品父类/子类</tspan></text></g><g ed:width="57" ed:height="24.5" ed:parentid="222" id="226" transform="matrix(1,0,0,1,788,849)" ed:layout="rightmap"><path fill="none" stroke="#696969" stroke-linejoin="round" d="M0,24.5L57,24.5"/><text class="st3"><tspan x="8" style="white-space:pre" y="16.1">分类名</tspan></text></g><g ed:width="70" ed:height="24.5" ed:parentid="146" id="228" transform="matrix(1,0,0,1,497,938)" ed:layout="rightmap"><path fill="none" stroke="#696969" stroke-linejoin="round" d="M0,24.5L70,24.5"/><text class="st3"><tspan x="8" style="white-space:pre" y="16.1">查询订单</tspan></text></g><g ed:width="96" ed:height="24.5" ed:parentid="146" id="230" transform="matrix(1,0,0,1,497,969)" ed:layout="rightmap"><path fill="none" stroke="#696969" stroke-linejoin="round" d="M0,24.5L96,24.5"/><text class="st3"><tspan x="8" style="white-space:pre" y="16.1">展示订单列表</tspan></text></g><g ed:width="70" ed:height="24.5" ed:parentid="146" id="232" transform="matrix(1,0,0,1,497,1015)" ed:layout="rightmap"><path fill="none" stroke="#696969" stroke-linejoin="round" d="M0,24.5L70,24.5"/><text class="st3"><tspan x="8" style="white-space:pre" y="16.1">订单操作</tspan></text></g><g ed:width="122" ed:height="24.5" ed:parentid="232" id="234" transform="matrix(1,0,0,1,594,1000)" ed:layout="rightmap"><path fill="none" stroke="#696969" stroke-linejoin="round" d="M0,24.5L122,24.5"/><text class="st3"><tspan x="8" style="white-space:pre" y="16.1">修改订单收货地址</tspan></text></g><g ed:width="96" ed:height="24.5" ed:parentid="232" id="236" transform="matrix(1,0,0,1,594,1031)" ed:layout="rightmap"><path fill="none" stroke="#696969" stroke-linejoin="round" d="M0,24.5L96,24.5"/><text class="st3"><tspan x="8" style="white-space:pre" y="16.1">查询物流信息</tspan></text></g><g ed:width="161" ed:height="24.5" ed:parentid="150" id="240" transform="matrix(1,0,0,1,510,1094)" ed:layout="rightmap"><path fill="none" stroke="#696969" stroke-linejoin="round" d="M0,24.5L161,24.5"/><text class="st3"><tspan x="8" style="white-space:pre" y="16.1">折线图展示用户来源报表</tspan></text></g><symbol id="plus"><path fill="url(#lg1)" d="M11,6C11,8.8,8.8,11,6,11C3.2,11,1,8.8,1,6C1,3.2,3.2,1,6,1C8.8,1,11,3.2,11,6z"/><path fill="none" stroke="#46a000" stroke-width="0.7" d="M11,6C11,8.8,8.8,11,6,11C3.2,11,1,8.8,1,6C1,3.2,3.2,1,6,1C8.8,1,11,3.2,11,6zM3,6L9,6M6,3L6,9"/></symbol><symbol id="minus"><path fill="url(#lg1)" d="M11,6C11,8.8,8.8,11,6,11C3.2,11,1,8.8,1,6C1,3.2,3.2,1,6,1C8.8,1,11,3.2,11,6z"/><path fill="none" stroke="#46a000" stroke-width="0.7" d="M11,6C11,8.8,8.8,11,6,11C3.2,11,1,8.8,1,6C1,3.2,3.2,1,6,1C8.8,1,11,3.2,11,6zM3,6L9,6"/></symbol><g ed:togtopicid="101" transform="translate(221,567)"><use xlink:href="#minus"/></g><g ed:togtopicid="102" transform="translate(387,1101)"><use xlink:href="#minus"/></g><g ed:togtopicid="122" transform="translate(387,136)"><use xlink:href="#minus"/></g><g ed:togtopicid="124" transform="translate(387,395)"><use xlink:href="#minus"/></g><g ed:togtopicid="126" transform="translate(387,716)"><use xlink:href="#minus"/></g><g ed:togtopicid="128" transform="translate(387,990)"><use xlink:href="#minus"/></g><g ed:togtopicid="132" transform="translate(484,136)"><use xlink:href="#minus"/></g><g ed:togtopicid="136" transform="translate(484,379)"><use xlink:href="#minus"/></g><g ed:togtopicid="138" transform="translate(484,488)"><use xlink:href="#minus"/></g><g ed:togtopicid="140" transform="translate(484,592)"><use xlink:href="#minus"/></g><g ed:togtopicid="142" transform="translate(484,716)"><use xlink:href="#minus"/></g><g ed:togtopicid="144" transform="translate(484,840)"><use xlink:href="#minus"/></g><g ed:togtopicid="146" transform="translate(471,990)"><use xlink:href="#minus"/></g><g ed:togtopicid="150" transform="translate(484,1101)"><use xlink:href="#minus"/></g><g ed:togtopicid="158" transform="translate(581,136)"><use xlink:href="#minus"/></g><g ed:togtopicid="162" transform="translate(704,167)"><use xlink:href="#minus"/></g><g ed:togtopicid="168" transform="translate(581,364)"><use xlink:href="#minus"/></g><g ed:togtopicid="176" transform="translate(704,379)"><use xlink:href="#minus"/></g><g ed:togtopicid="192" transform="translate(581,607)"><use xlink:href="#minus"/></g><g ed:togtopicid="200" transform="translate(659,685)"><use xlink:href="#minus"/></g><g ed:togtopicid="202" transform="translate(659,747)"><use xlink:href="#minus"/></g><g ed:togtopicid="216" transform="translate(607,855)"><use xlink:href="#minus"/></g><g ed:togtopicid="222" transform="translate(762,855)"><use xlink:href="#minus"/></g><g ed:togtopicid="232" transform="translate(568,1021)"><use xlink:href="#minus"/></g></svg>